<?xml version="1.0" standalone="no"?>
<!DOCTYPE svg PUBLIC "-//W3C//DTD SVG 20010904//EN"
 "http://www.w3.org/TR/2001/REC-SVG-20010904/DTD/svg10.dtd">
<svg version="1.0" xmlns="http://www.w3.org/2000/svg"
 width="512.000000pt" height="512.000000pt" viewBox="0 0 512.000000 512.000000"
 preserveAspectRatio="xMidYMid meet">

<g transform="translate(0.000000,512.000000) scale(0.100000,-0.100000)"
fill="#fff" stroke="none">
<path d="M470 4344 c-221 -47 -408 -236 -455 -459 -22 -105 -22 -2545 0 -2650
47 -225 235 -413 460 -460 105 -22 4065 -22 4170 0 225 47 413 235 460 460 22
105 22 2545 0 2650 -47 225 -235 413 -460 460 -102 21 -4075 21 -4175 -1z
m4195 -257 c78 -36 146 -104 182 -181 l28 -61 0 -1285 0 -1285 -28 -61 c-36
-77 -104 -145 -182 -181 l-60 -28 -2045 0 -2045 0 -61 28 c-77 36 -145 104
-181 182 l-28 60 0 1285 0 1285 28 60 c46 99 124 167 232 201 32 10 450 12
2070 11 l2030 -2 60 -28z"/>
<path d="M488 3884 c-61 -33 -77 -123 -30 -174 15 -17 358 -284 762 -593 404
-309 734 -566 733 -572 0 -5 -331 -259 -734 -563 -404 -304 -742 -562 -751
-573 -27 -32 -32 -82 -14 -121 21 -43 63 -68 115 -68 36 0 57 13 203 123 90
68 438 331 775 585 337 254 615 462 618 462 3 0 56 -39 118 -86 137 -106 173
-123 254 -124 86 0 127 19 265 122 65 48 121 88 124 88 4 0 164 -118 358 -262
1304 -974 1213 -908 1261 -908 82 0 136 77 110 155 -8 20 -17 41 -22 45 -4 4
-341 256 -748 560 -407 304 -744 556 -748 560 -5 4 328 258 740 565 411 307
761 570 777 585 22 22 30 40 34 79 4 47 2 53 -31 86 -29 29 -42 35 -77 35 -23
0 -51 -5 -62 -11 -12 -7 -456 -336 -987 -732 -531 -396 -975 -722 -986 -724
-14 -2 -275 192 -870 647 -1187 910 -1080 830 -1123 830 -20 -1 -49 -7 -64
-16z"/>
</g>
</svg>
